<?xml version="1.0" standalone="no"?>
<!DOCTYPE svg PUBLIC "-//W3C//DTD SVG 20010904//EN"
 "http://www.w3.org/TR/2001/REC-SVG-20010904/DTD/svg10.dtd">
<svg version="1.0" xmlns="http://www.w3.org/2000/svg"
 width="5120.000000pt" height="5120.000000pt" viewBox="0 0 5120.000000 5120.000000"
 preserveAspectRatio="xMidYMid meet">

<g transform="translate(0.000000,5120.000000) scale(0.100000,-0.100000)"
fill="#000000" stroke="none">
<path d="M25413 44786 c-524 -100 -1028 -615 -1530 -1561 -229 -432 -460 -968
-613 -1425 -404 -1208 -617 -2622 -690 -4580 -24 -649 -47 -2646 -46 -4025 1
-483 -10 -710 -34 -756 -5 -8 -305 -181 -667 -384 -752 -422 -1205 -676 -1443
-810 -153 -86 -1402 -786 -1855 -1040 -110 -62 -609 -345 -1110 -630 -500
-284 -950 -540 -998 -567 -53 -30 -92 -47 -98 -41 -13 13 -27 173 -39 428 -5
121 -17 253 -26 294 -65 306 -240 473 -569 542 -109 22 -286 35 -722 50 -637
23 -1064 -20 -1301 -131 -162 -76 -256 -174 -312 -328 -66 -180 -70 -256 -81
-1452 -5 -580 -12 -1075 -15 -1100 -4 -36 -12 -49 -32 -61 -15 -9 -93 -57
-173 -107 -199 -124 -467 -277 -879 -504 -190 -105 -480 -268 -645 -363 -165
-95 -361 -207 -435 -250 -253 -145 -744 -421 -1155 -650 -1397 -777 -2558
-1448 -3060 -1768 -195 -124 -304 -207 -312 -237 -6 -23 24 -1361 31 -1367 7
-7 940 161 1516 273 747 144 1418 282 2500 514 937 201 1659 352 3090 649
2685 557 3849 807 5235 1125 582 133 783 176 1027 216 340 56 441 64 828 62
252 -2 466 4 735 18 708 39 1224 37 1261 -3 7 -7 22 -160 38 -367 15 -195 83
-1079 151 -1965 69 -885 161 -2076 205 -2645 98 -1263 92 -1199 389 -4525 48
-544 85 -993 82 -997 -3 -4 -481 -258 -1061 -566 -1228 -650 -2762 -1463
-3925 -2080 -451 -239 -965 -511 -1142 -605 l-323 -171 1 -140 c2 -416 25
-1806 30 -1811 3 -3 25 1 48 10 395 139 6917 1653 6946 1612 1 -1 37 -139 79
-307 469 -1845 527 -2059 731 -2680 171 -519 285 -819 394 -1034 36 -72 71
-131 77 -133 14 -5 123 231 218 474 243 617 475 1392 806 2698 189 747 249
965 270 988 20 23 480 -73 1115 -233 281 -71 827 -203 1215 -294 2612 -611
3138 -735 3405 -806 549 -144 791 -201 1020 -239 198 -32 232 -35 238 -16 23
57 28 288 24 1048 l-3 815 -27 41 c-34 51 -72 79 -267 195 -484 289 -1020 569
-3470 1811 -1100 558 -1646 842 -2165 1126 -429 234 -510 283 -513 310 -3 27
309 3887 332 4104 38 356 85 932 156 1895 57 768 115 1448 155 1790 26 221 44
481 80 1135 57 1022 83 1345 126 1547 l11 49 126 -5 c70 -4 501 -13 957 -21
457 -8 921 -20 1032 -25 430 -22 728 -70 1646 -265 197 -41 599 -125 895 -185
295 -60 1091 -222 1767 -360 1270 -259 1984 -405 2400 -490 132 -27 805 -164
1495 -305 1138 -232 1735 -354 2425 -495 230 -47 2296 -468 3165 -646 228 -46
419 -83 425 -80 38 14 59 307 48 654 -5 159 -5 343 1 467 7 149 6 215 -2 243
-15 50 -69 112 -145 166 -85 60 -1569 908 -2467 1408 -1629 909 -2318 1296
-3049 1712 -196 112 -464 261 -596 331 -278 146 -329 182 -368 254 -41 74 -47
165 -36 501 6 157 8 625 6 1040 -4 633 -7 770 -20 847 -80 457 -288 590 -992
633 -231 13 -1195 13 -1310 -1 -134 -17 -229 -44 -334 -95 -166 -82 -268 -209
-324 -404 -36 -122 -47 -231 -54 -532 -3 -148 -8 -268 -10 -268 -4 0 -812 517
-2648 1695 -121 78 -659 423 -1195 767 -536 344 -1317 844 -1735 1113 -418
268 -763 491 -766 497 -3 5 -9 51 -12 101 -4 51 -13 189 -21 307 -41 587 -64
1300 -86 2620 -30 1782 -79 2678 -196 3560 -172 1302 -562 2658 -1049 3645
-134 273 -221 425 -360 635 -335 503 -684 803 -1050 900 -104 27 -292 35 -392
16z"/>
</g>
</svg>
